<?xml version="1.0" encoding="UTF-8"?><svg id="Layer_2" xmlns="http://www.w3.org/2000/svg" viewBox="0 0 1115.35 217.36"><g id="Layer_1-2"><path d="m468.5,105.36v69.99h4.31c2.01,0,3.64-1.63,3.64-3.64v-69.99h-4.31c-2.01,0-3.64,1.63-3.64,3.64Z"/><path d="m441.96,79.42v4.31h57.4c2.01,0,3.64-1.63,3.64-3.64v-4.31h-57.4c-2.01,0-3.64,1.63-3.64,3.64Z"/><path d="m602.85,108.2c-.3-17.89-14.95-32.35-32.91-32.35h-23.45v3.64c0,2.01,1.63,3.64,3.64,3.64h19.8c14.34,0,25.97,11.84,25.63,26.26-.33,13.99-12.11,25.02-26.11,25.02h-14.16c-3.25,0-4.87,3.93-2.57,6.22l33.71,33.65c.68.68,1.61,1.07,2.57,1.07h8.8l-33.72-33.66h5.26c18.42,0,33.81-15.07,33.5-33.49Z"/><path d="m660.22,79.4v95.96h4.51c2.01,0,3.64-1.63,3.64-3.64v-95.96h-4.51c-2.01,0-3.64,1.63-3.64,3.64Z"/><path d="m720.1,79.42v4.31h57.4c2.01,0,3.64-1.63,3.64-3.64v-4.31h-57.4c-2.01,0-3.64,1.63-3.64,3.64Z"/><path d="m746.64,105.36v69.99h4.31c2.01,0,3.64-1.63,3.64-3.64v-69.99h-4.31c-2.01,0-3.64,1.63-3.64,3.64Z"/><path d="m828.7,79.4v95.96h4.51c2.01,0,3.64-1.63,3.64-3.64v-95.96h-4.51c-2.01,0-3.64,1.63-3.64,3.64Z"/><path d="m956.48,75.35v62.2c0,16.67-13.76,30.18-30.51,29.78-16.26-.38-29.07-14.07-29.07-30.34v-61.64c0-2.01-1.63-3.64-3.64-3.64h-4.37v65.21c0,20.7,16.38,38.04,37.07,38.43,21.18.4,38.53-16.71,38.53-37.8v-65.84h-4.37c-2.01,0-3.64,1.63-3.64,3.64Z"/><path d="m1095.14,78.67c-.35-1.69-1.84-2.9-3.57-2.9h-1.11c-1.27,0-2.45.66-3.11,1.75l-34.74,57.21-34.41-57.19c-.66-1.1-1.84-1.77-3.12-1.77h-7.64l42.03,69.86c1.41,2.35,4.81,2.35,6.24.01l33.44-55.06,17.11,81.87c.35,1.69,1.84,2.9,3.57,2.9h5.53l-20.21-96.69Z"/><path d="m277.08,46.15c1.04,1.48,2.05,2.99,3.02,4.53,29.99-5.53,49.85-5.82,51.91.44,3.88,11.81-57.07,42.47-136.14,68.48-20.38,6.7-39.97,12.44-57.9,17.07-9.29-13.59-14.73-30.02-14.73-47.73,0-46.78,37.92-84.7,84.7-84.7,4.86,0,9.61.43,14.24,1.22-10.69-3.52-22.11-5.45-33.98-5.45-60.02,0-108.68,48.66-108.68,108.68,0,1.13.02,2.26.06,3.39C28.08,136.08-3.84,159.01.37,171.8c4.23,12.85,43.87,12.31,100.01.9,19.77,27.07,51.74,44.66,87.82,44.66,59.91,0,108.49-48.47,108.67-108.34,56.25-25.34,91.74-50.01,87.32-63.46-4.4-13.39-47.24-12.23-107.11.59ZM45.67,145.3c-1.87-5.68,11.3-15.73,34.24-27.52.86,10.42,3.2,20.42,6.8,29.8-23.85,3.65-39.23,3.19-41.03-2.28Zm162.28,28.34c-18.08,0-34.82-5.68-48.57-15.33,14.47-4.06,29.45-8.61,44.75-13.64,31.11-10.23,60.02-21.28,85.2-32.29-10.17,35.37-42.73,61.26-81.37,61.26Z"/></g></svg>